<svg height="464pt" viewBox="0 -80 464 464" width="464pt" xmlns="http://www.w3.org/2000/svg"><path d="m0 32v272h160v-272zm0 0" fill="#4db7e5"/><path d="m48 256h64v48h-64zm0 0" fill="#348fd9"/><path d="m72 256h16v48h-16zm0 0" fill="#2a71ad"/><g fill="#348fd9"><path d="m32 192h32v32h-32zm0 0"/><path d="m96 192h32v32h-32zm0 0"/><path d="m32 128h32v32h-32zm0 0"/><path d="m96 128h32v32h-32zm0 0"/><path d="m32 64h32v32h-32zm0 0"/><path d="m96 64h32v32h-32zm0 0"/></g><path d="m32 64h32v16h-32zm0 0" fill="#2a71ad"/><path d="m96 64h32v16h-32zm0 0" fill="#2a71ad"/><path d="m32 128h32v16h-32zm0 0" fill="#2a71ad"/><path d="m96 128h32v16h-32zm0 0" fill="#2a71ad"/><path d="m32 192h32v16h-32zm0 0" fill="#2a71ad"/><path d="m96 192h32v16h-32zm0 0" fill="#2a71ad"/><path d="m16 0h128v32h-128zm0 0" fill="#79c6e8"/><path d="m48 256h64v16h-64zm0 0" fill="#2a71ad"/><path d="m432 32c0 17.671875-14.328125 32-32 32s-32-14.328125-32-32 14.328125-32 32-32 32 14.328125 32 32zm0 0" fill="#5f943a"/><path d="m432 304h-64v-120h-32v-88c0-17.671875 14.328125-32 32-32h64c17.671875 0 32 14.328125 32 32v88h-32zm0 0" fill="#5f943a"/><path d="m400 32c0 17.671875-14.328125 32-32 32s-32-14.328125-32-32 14.328125-32 32-32 32 14.328125 32 32zm0 0" fill="#69a340"/><path d="m400 304h-64v-120h-32v-88c0-17.671875 14.328125-32 32-32h64c17.671875 0 32 14.328125 32 32v88h-32zm0 0" fill="#69a340"/><path d="m368 32c0 17.671875-14.328125 32-32 32s-32-14.328125-32-32 14.328125-32 32-32 32 14.328125 32 32zm0 0" fill="#7eb457"/><path d="m368 304h-64v-120h-32v-88c0-17.671875 14.328125-32 32-32h64c17.671875 0 32 14.328125 32 32v88h-32zm0 0" fill="#7eb457"/><path d="m328 176h16v128h-16zm0 0" fill="#64963f"/><path d="m360 104h16v80h-16zm0 0" fill="#64963f"/><path d="m296 104h16v80h-16zm0 0" fill="#64963f"/><path d="m328 176-56-56v32h-80v-32l-56 56 56 56v-32h80v32zm0 0" fill="#ffb531"/><path d="m328 176-56-56v32h-8l-48 48h56v32zm0 0" fill="#ffa912"/></svg>