<svg id="Capa_1" enable-background="new 0 0 497.06 497.06" height="512" viewBox="0 0 497.06 497.06" width="512" xmlns="http://www.w3.org/2000/svg"><g><path d="m343.21 11.505h-335.76c-4.12 0-7.45 3.34-7.45 7.46v459.13c0 4.12 3.33 7.46 7.45 7.46h166.14l41.399-23.663 21.314-8.337v23.836l37.287 8.164h69.62c4.12 0 7.46-3.34 7.46-7.46v-459.13c0-4.12-3.34-7.46-7.46-7.46z" fill="#fbe88c"/><path d="m32.99 43.505 33.292 257.52 207.308 152.53h37.825c4.007 0 7.255-3.248 7.255-7.255v-396.125c0-3.684-2.986-6.67-6.67-6.67z" fill="#b3adb5"/><path d="m411.226 330.823v32.116c0 2.608 3.293 3.748 4.906 1.699l80.34-102.093c.784-.997.784-2.401 0-3.398l-80.34-102.093c-1.613-2.049-4.906-.909-4.906 1.699v32.116h-230.315v138.571z" fill="#efb4b2"/><g><g id="XMLID_166_"><g><path d="m293.59 190.867h-112.679v138.573l112.679.676z" fill="#ea9a98"/><path d="m271.05 97.555c1.48.33 2.54 1.64 2.54 3.16v384.84h-100l-139.33-31.49c-1.33-.3-2.27-1.48-2.27-2.83v-406.83c0-.5.4-.9.9-.9h.1z" fill="#f8f7f8"/></g></g><path d="m82.747 425.386c-1.33-.3-2.27-1.48-2.27-2.83v-368.269l-47.487-10.782h-.1c-.5 0-.9.4-.9.9v406.83c0 1.35.94 2.53 2.27 2.83l139.33 31.49h100v-12.19z" fill="#efedee"/><circle cx="208.013" cy="285.798" fill="#e4e1e5" r="15.227"/><g fill="#f8f7f8"><path d="m401.145 235.851c-4.143 0-7.5 3.358-7.5 7.5v36.694c0 4.142 3.357 7.5 7.5 7.5s7.5-3.358 7.5-7.5v-36.694c0-4.142-3.357-7.5-7.5-7.5z"/><path d="m324.249 235.807c4.143 0 7.5-3.358 7.5-7.5s-3.357-7.5-7.5-7.5h-20.813c-4.143 0-7.5 3.358-7.5 7.5v51.896c0 4.142 3.357 7.5 7.5 7.5h20.813c4.143 0 7.5-3.358 7.5-7.5s-3.357-7.5-7.5-7.5h-13.313v-10.948h11.778c4.143 0 7.5-3.358 7.5-7.5s-3.357-7.5-7.5-7.5h-11.778v-10.948z"/><path d="m370.675 260.398 8.967-12.728c2.385-3.386 1.574-8.065-1.812-10.451-3.389-2.386-8.065-1.573-10.451 1.812l-5.871 8.334-5.86-8.33c-2.382-3.387-7.059-4.203-10.449-1.819-3.388 2.383-4.202 7.062-1.818 10.45l8.952 12.725-10.802 15.334c-2.385 3.386-1.574 8.065 1.812 10.451 1.313.925 2.82 1.369 4.312 1.369 2.357 0 4.678-1.108 6.139-3.181l7.707-10.94 7.693 10.936c1.46 2.076 3.781 3.185 6.141 3.185 1.49 0 2.996-.443 4.309-1.366 3.388-2.383 4.202-7.062 1.818-10.45z"/><path d="m445.77 235.851h-20.265c-4.143 0-7.5 3.358-7.5 7.5s3.357 7.5 7.5 7.5h2.592v29.194c0 4.142 3.357 7.5 7.5 7.5s7.5-3.358 7.5-7.5v-29.194h2.673c4.143 0 7.5-3.358 7.5-7.5s-3.357-7.5-7.5-7.5z"/></g></g></g></svg>