<svg viewBox="0 0 512 512" xml:space="preserve" xmlns="http://www.w3.org/2000/svg" enable-background="new 0 0 512 512"><path d="M179.857 332.189h26.549v52.846h-26.549zM45.154 407.963c0 7.264 5.947 13.174 13.256 13.174.258 0 .511-.023.766-.038.205-.013.412-.014.614-.034.228-.023.448-.066.672-.102.215-.034.433-.058.645-.101.177-.037.346-.091.52-.134.252-.063.507-.119.754-.196.103-.031.2-.075.302-.109.311-.106.621-.212.921-.341.014-.005.027-.014.041-.019 4.321-1.855 7.466-5.93 7.961-10.761.045-.44.068-.889.068-1.34V99.68h-26.52v308.283zM116.993 269.624h26.549v115.411h-26.549zM242.722 278.564h26.55v106.471h-26.55zM386.479 52.763v37.67h37.849z" fill-rule="evenodd" clip-rule="evenodd" fill="#005a9e" class="fill-000000"></path><path d="M430.94 99.804h-49.146a4.685 4.685 0 0 1-4.685-4.686V46.174H81.045l.05 308.145c0 .233-.018.464-.051.691v52.953c0 .55-.027 1.094-.066 1.634a22.351 22.351 0 0 1-.219 1.925c-.009.056-.021.111-.03.167a22.243 22.243 0 0 1-.306 1.5c-.014.062-.027.123-.042.184a22.58 22.58 0 0 1-.453 1.57l-.048.142a22.401 22.401 0 0 1-1.301 3.091c-.01.019-.02.037-.029.057a22.583 22.583 0 0 1-1.79 2.905h219.462V220.249a4.687 4.687 0 0 1 4.686-4.686H430.94V99.804zm-318.633 53.629h156.928a4.686 4.686 0 0 1 0 9.372H112.307a4.687 4.687 0 0 1 0-9.372zm-4.685-26.819a4.686 4.686 0 0 1 4.686-4.686h156.928a4.686 4.686 0 0 1 0 9.372H112.307a4.686 4.686 0 0 1-4.685-4.686zm4.685 58.32h156.928a4.686 4.686 0 0 1 0 9.372H112.307a4.687 4.687 0 0 1 0-9.372zm40.606 204.786a4.685 4.685 0 0 1-4.686 4.686h-35.92a4.686 4.686 0 0 1-4.686-4.686V264.938a4.685 4.685 0 0 1 4.686-4.686h35.92a4.686 4.686 0 0 1 4.686 4.686V389.72zm62.864 0a4.685 4.685 0 0 1-4.686 4.686h-35.92a4.686 4.686 0 0 1-4.686-4.686v-62.216a4.686 4.686 0 0 1 4.686-4.686h35.92a4.687 4.687 0 0 1 4.686 4.686v62.216zm62.865 0a4.685 4.685 0 0 1-4.686 4.686h-35.92a4.685 4.685 0 0 1-4.685-4.686V273.879a4.686 4.686 0 0 1 4.685-4.686h35.92a4.686 4.686 0 0 1 4.686 4.686V389.72zm58.171-289.916H112.307a4.687 4.687 0 0 1 0-9.372h224.506a4.686 4.686 0 0 1 0 9.372z" fill-rule="evenodd" clip-rule="evenodd" fill="#005a9e" class="fill-000000"></path><path d="M435.626 224.934H305.595v240.892h161.252V224.934h-31.221zm-80.833 218.687h-17.936V425.77h17.936v17.851zm0-35.725h-17.936v-17.853h17.936v17.853zm0-35.728h-17.936v-17.849h17.936v17.849zm0-35.725h-17.936v-17.854h17.936v17.854zm26.915 107.178h-17.935V425.77h17.935v17.851zm0-35.725h-17.935v-17.853h17.935v17.853zm0-35.728h-17.935v-17.849h17.935v17.849zm0-35.725h-17.935v-17.854h17.935v17.854zm26.916 107.178h-17.935V425.77h17.935v17.851zm0-35.725h-17.935v-17.853h17.935v17.853zm0-35.728h-17.935v-17.849h17.935v17.849zm0-35.725h-17.935v-17.854h17.935v17.854zm26.916 107.178h-17.935V425.77h17.935v17.851zm0-35.725h-17.935v-17.853h17.935v17.853zm0-35.728h-17.935v-17.849h17.935v17.849zm0-35.725h-17.935v-17.854h17.935v17.854zm13.739-44.69a4.685 4.685 0 0 1-4.686 4.686h-116.74a4.685 4.685 0 0 1-4.686-4.686v-44.689a4.685 4.685 0 0 1 4.686-4.685h116.741a4.685 4.685 0 0 1 4.686 4.685v44.689z" fill-rule="evenodd" clip-rule="evenodd" fill="#005a9e" class="fill-000000"></path><path d="M332.538 251.749h107.37v35.319h-107.37z" fill-rule="evenodd" clip-rule="evenodd" fill="#005a9e" class="fill-000000"></path></svg>