<svg viewBox="0 0 48 48" xml:space="preserve" xmlns="http://www.w3.org/2000/svg" enable-background="new 0 0 48 48"><path d="M38.7 8.2H34v3.1h3.4v33.2H10.6V11.2H14v-3H9.3c-1.4 0-2.5 1.1-2.5 2.5V45c0 1.4 1.1 2.5 2.5 2.5h29.4c1.4 0 2.5-1.1 2.5-2.5V10.6c0-1.3-1.1-2.4-2.5-2.4z" fill="#005a9e" class="fill-000000"></path><path d="M32 6.7c0-.7-.6-1.3-1.3-1.3h-4.3V2.9c0-1.3-1.1-2.4-2.4-2.4-1.3 0-2.4 1.1-2.4 2.4v2.5h-4.3c-.7 0-1.3.6-1.3 1.3v4.5h16V6.7zM12.6 13.2v29.2h22.8V13.2H12.6zm7.2 25h-3.7v-2h3.7v2zm0-5.9h-3.7v-2h3.7v2zM33 38.2H22.7v-2H33v2zm0-5.9H22.7v-2H33v2zm0-5.9H22.7v-2H33v2zm-12.1-9.8H23v-2.1h2v2.1h2.1v2H25v2.1h-2v-2.1h-2.1v-2zm-5.2 6.7 1.6 1.6 2.6-2.6 1.4 1.4-4 4-3-3 1.4-1.4z" fill="#005a9e" class="fill-000000"></path></svg>