<?xml version="1.0"?>
<svg xmlns="http://www.w3.org/2000/svg" xmlns:xlink="http://www.w3.org/1999/xlink" xmlns:svgjs="http://svgjs.com/svgjs" version="1.1" width="512" height="512" x="0" y="0" viewBox="0 0 512 512" style="enable-background:new 0 0 512 512" xml:space="preserve" class=""><g><g xmlns="http://www.w3.org/2000/svg"><path d="m362.959 142.182c4.775-2.13 8.65-5.523 11.299-9.731 5.813 7.434 10.456 15.709 13.859 24.722 3.239 8.577 9.624 15.38 17.979 19.155 4.513 2.039 9.309 3.062 14.117 3.062 4.093 0 8.197-.742 12.141-2.231 8.578-3.239 15.38-9.625 19.155-17.98s4.07-17.681.831-26.258c-12.741-33.74-36.439-62.384-67.016-81.146l.626-6c.965-9.246-2.951-18.025-10.475-23.483s-17.085-6.455-25.575-2.668l-69.402 30.965c-8.488 3.787-14.132 11.567-15.097 20.812s2.95 18.023 10.474 23.481l61.51 44.629c7.525 5.46 17.085 6.457 25.574 2.671zm-82.638-69.224c.402-3.852 2.753-7.093 6.29-8.671l69.403-30.965c3.535-1.578 7.52-1.163 10.655 1.112 3.135 2.274 4.767 5.932 4.364 9.784l-1.125 10.78c-.309 2.955 1.156 5.813 3.735 7.289 29.605 16.938 52.571 43.905 64.666 75.934 1.824 4.829 1.658 10.08-.467 14.783-2.125 4.704-5.955 8.299-10.784 10.123-9.967 3.764-21.141-1.282-24.905-11.251-5.722-15.153-14.473-28.514-26.009-39.712-1.424-1.382-3.307-2.119-5.226-2.119-.857 0-1.723.147-2.557.45-2.7.979-4.603 3.415-4.901 6.271l-.318 3.047c-.402 3.852-2.753 7.093-6.291 8.671-3.538 1.577-7.521 1.16-10.655-1.113l-61.51-44.629c-3.136-2.276-4.767-5.933-4.365-9.784z" fill="#005a9e" data-original="#000000" style="" class=""/><path d="m236.125 417.12-24.54-17.81c-3.354-2.434-8.043-1.688-10.475 1.665-2.433 3.353-1.688 8.042 1.665 10.475l24.542 17.812c3.134 2.273 4.766 5.929 4.364 9.78-.401 3.852-2.752 7.092-6.288 8.669l-69.398 30.969c-3.542 1.579-7.53 1.163-10.667-1.115-3.133-2.275-4.764-5.933-4.361-9.783l1.13-10.78c.31-2.957-1.155-5.817-3.736-7.292-29.599-16.928-52.565-43.894-64.668-75.932-1.825-4.828-1.659-10.077.467-14.78 2.125-4.704 5.956-8.298 10.79-10.122 9.96-3.765 21.132 1.284 24.902 11.255 5.723 15.146 14.47 28.506 26 39.708 2.06 2.001 5.082 2.648 7.782 1.672 2.7-.979 4.604-3.413 4.904-6.269l.32-3.051c.403-3.857 2.757-7.102 6.296-8.679 3.533-1.576 7.515-1.158 10.65 1.119l12.899 9.36c3.353 2.432 8.042 1.686 10.475-1.666 2.433-3.353 1.687-8.042-1.666-10.475l-12.898-9.359c-7.522-5.461-17.081-6.462-25.567-2.68-4.779 2.13-8.657 5.526-11.307 9.737-5.811-7.435-10.452-15.709-13.856-24.72-6.695-17.709-26.54-26.673-44.233-19.985-8.579 3.237-15.383 9.622-19.159 17.977-3.777 8.358-4.071 17.685-.829 26.261 12.747 33.745 36.446 62.387 67.016 81.14l-.629 5.999c-.967 9.246 2.946 18.025 10.468 23.485 4.508 3.272 9.747 4.943 15.05 4.943 3.55 0 7.13-.749 10.537-2.268l69.4-30.969c8.488-3.787 14.131-11.567 15.095-20.812.965-9.247-2.952-18.024-10.475-23.479z" fill="#005a9e" data-original="#000000" style="" class=""/><path d="m107.819 63.4h-45.176c-4.142 0-7.5 3.358-7.5 7.5v45.176c0 4.142 3.358 7.5 7.5 7.5h45.176c4.142 0 7.5-3.358 7.5-7.5v-45.176c0-4.142-3.358-7.5-7.5-7.5zm-7.5 45.177h-30.176v-30.177h30.176z" fill="#005a9e" data-original="#000000" style="" class=""/><path d="m178.972 63.4h-45.176c-4.142 0-7.5 3.358-7.5 7.5v45.176c0 4.142 3.358 7.5 7.5 7.5h45.176c4.142 0 7.5-3.358 7.5-7.5v-45.176c0-4.142-3.358-7.5-7.5-7.5zm-7.5 45.177h-30.176v-30.177h30.176z" fill="#005a9e" data-original="#000000" style="" class=""/><path d="m107.819 135.689h-45.176c-4.142 0-7.5 3.358-7.5 7.5v45.176c0 4.142 3.358 7.5 7.5 7.5h45.176c4.142 0 7.5-3.358 7.5-7.5v-45.176c0-4.142-3.358-7.5-7.5-7.5zm-7.5 45.177h-30.176v-30.176h30.176z" fill="#005a9e" data-original="#000000" style="" class=""/><path d="m178.972 135.689h-45.176c-4.142 0-7.5 3.358-7.5 7.5v45.176c0 4.142 3.358 7.5 7.5 7.5h45.176c4.142 0 7.5-3.358 7.5-7.5v-45.176c0-4.142-3.358-7.5-7.5-7.5zm-7.5 45.177h-30.176v-30.176h30.176z" fill="#005a9e" data-original="#000000" style="" class=""/><path d="m107.819 207.979h-45.176c-4.142 0-7.5 3.358-7.5 7.5v45.176c0 4.142 3.358 7.5 7.5 7.5h45.176c4.142 0 7.5-3.358 7.5-7.5v-45.176c0-4.143-3.358-7.5-7.5-7.5zm-7.5 45.176h-30.176v-30.176h30.176z" fill="#005a9e" data-original="#000000" style="" class=""/><path d="m178.972 207.979h-45.176c-4.142 0-7.5 3.358-7.5 7.5v45.176c0 4.142 3.358 7.5 7.5 7.5h45.176c4.142 0 7.5-3.358 7.5-7.5v-45.176c0-4.143-3.358-7.5-7.5-7.5zm-7.5 45.176h-30.176v-30.176h30.176z" fill="#005a9e" data-original="#000000" style="" class=""/><path d="m226.407 302.094c4.142 0 7.5-3.358 7.5-7.5s-3.358-7.5-7.5-7.5h-17.347v-243.556c9.183-2.733 15.901-11.248 15.901-21.307 0-12.258-9.973-22.23-22.23-22.23h-163.847c-12.258 0-22.23 9.973-22.23 22.23 0 10.059 6.718 18.574 15.901 21.307v243.557h-17.347c-4.142 0-7.5 3.358-7.5 7.5s3.358 7.5 7.5 7.5h211.199zm-187.523-287.094h163.847c3.987 0 7.23 3.244 7.23 7.23s-3.244 7.23-7.23 7.23h-163.847c-3.987 0-7.23-3.244-7.23-7.23s3.243-7.23 7.23-7.23zm8.671 272.094v-242.633h146.506v242.633z" fill="#005a9e" data-original="#000000" style="" class=""/><path d="m378.204 273.306h-45.176c-4.142 0-7.5 3.358-7.5 7.5v45.176c0 4.142 3.358 7.5 7.5 7.5h45.176c4.142 0 7.5-3.358 7.5-7.5v-45.176c0-4.142-3.358-7.5-7.5-7.5zm-7.5 45.176h-30.176v-30.176h30.176z" fill="#005a9e" data-original="#000000" style="" class=""/><path d="m449.357 273.306h-45.176c-4.142 0-7.5 3.358-7.5 7.5v45.176c0 4.142 3.358 7.5 7.5 7.5h45.176c4.142 0 7.5-3.358 7.5-7.5v-45.176c0-4.142-3.358-7.5-7.5-7.5zm-7.5 45.176h-30.176v-30.176h30.176z" fill="#005a9e" data-original="#000000" style="" class=""/><path d="m378.204 345.595h-45.176c-4.142 0-7.5 3.358-7.5 7.5v45.176c0 4.142 3.358 7.5 7.5 7.5h45.176c4.142 0 7.5-3.358 7.5-7.5v-45.176c0-4.142-3.358-7.5-7.5-7.5zm-7.5 45.176h-30.176v-30.176h30.176z" fill="#005a9e" data-original="#000000" style="" class=""/><path d="m449.357 345.595h-45.176c-4.142 0-7.5 3.358-7.5 7.5v45.176c0 4.142 3.358 7.5 7.5 7.5h45.176c4.142 0 7.5-3.358 7.5-7.5v-45.176c0-4.142-3.358-7.5-7.5-7.5zm-7.5 45.176h-30.176v-30.176h30.176z" fill="#005a9e" data-original="#000000" style="" class=""/><path d="m378.204 417.884h-45.176c-4.142 0-7.5 3.358-7.5 7.5v45.176c0 4.142 3.358 7.5 7.5 7.5h45.176c4.142 0 7.5-3.358 7.5-7.5v-45.176c0-4.142-3.358-7.5-7.5-7.5zm-7.5 45.177h-30.176v-30.176h30.176z" fill="#005a9e" data-original="#000000" style="" class=""/><path d="m449.357 417.884h-45.176c-4.142 0-7.5 3.358-7.5 7.5v45.176c0 4.142 3.358 7.5 7.5 7.5h45.176c4.142 0 7.5-3.358 7.5-7.5v-45.176c0-4.142-3.358-7.5-7.5-7.5zm-7.5 45.177h-30.176v-30.176h30.176z" fill="#005a9e" data-original="#000000" style="" class=""/><path d="m496.792 497h-17.347v-243.545c3.515-1.038 6.731-2.935 9.377-5.591 4.209-4.192 6.528-9.776 6.528-15.724 0-12.258-9.972-22.23-22.23-22.23h-16.38c-4.142 0-7.5 3.358-7.5 7.5s3.358 7.5 7.5 7.5h16.38c3.987 0 7.23 3.243 7.23 7.23 0 1.929-.75 3.739-2.134 5.117-1.357 1.362-3.167 2.113-5.096 2.113h-163.85c-3.987 0-7.23-3.243-7.23-7.23 0-1.932.754-3.752 2.104-5.107 1.374-1.369 3.195-2.123 5.126-2.123h117.53c4.142 0 7.5-3.358 7.5-7.5s-3.358-7.5-7.5-7.5h-117.53c-5.928 0-11.508 2.307-15.733 6.517-4.19 4.205-6.497 9.786-6.497 15.713 0 10.059 6.717 18.573 15.899 21.307v243.553h-17.347c-4.142 0-7.5 3.358-7.5 7.5s3.358 7.5 7.5 7.5h211.2c4.142 0 7.5-3.358 7.5-7.5s-3.357-7.5-7.5-7.5zm-178.853 0v-242.63h146.506v242.63z" fill="#005a9e" data-original="#000000" style="" class=""/></g></g></svg>
