<?xml version="1.0"?>
<svg xmlns="http://www.w3.org/2000/svg" xmlns:xlink="http://www.w3.org/1999/xlink" xmlns:svgjs="http://svgjs.com/svgjs" version="1.1" width="512" height="512" x="0" y="0" viewBox="0 0 24 24" style="enable-background:new 0 0 512 512" xml:space="preserve" class=""><g><g xmlns="http://www.w3.org/2000/svg"><path d="m18.1462 14.7013c-5.2452-2.2647-11.2677-2.0437-16.3611.663-.54138.2877-.879771.8507-.879771 1.4638v3.6718c0 .9665.783501 1.75 1.75 1.75h12.8698l-1.5125-1.5125c-.5005-.5005-.6502-1.2532-.3794-1.9071.1466-.3538.4007-.6411.7152-.8301-.5084-.3062-.8484-.8635-.8484-1.5002 0-.9665.7835-1.75 1.75-1.75h2.9183c-.0076-.0161-.015-.0324-.0221-.0487z" fill="#005a9e" data-original="#000000" style=""/><g fill-rule="evenodd"><path d="m10.906 1.25c-2.89946 0-5.24996 2.35051-5.24996 5.25 0 2.8995 2.3505 5.25 5.24996 5.25 2.8995 0 5.25-2.3505 5.25-5.25 0-2.89949-2.3505-5.25-5.25-5.25z" fill="#005a9e" data-original="#000000" style=""/><path d="m19.2197 13.4697c.2929-.2929.7677-.2929 1.0606 0l2.5 2.5c.2145.2145.2787.5371.1626.8173-.1161.2803-.3896.463-.6929.463h-7c-.4142 0-.75-.3358-.75-.75s.3358-.75.75-.75h5.1893l-1.2196-1.2197c-.2929-.2929-.2929-.7677 0-1.0606z" fill="#005a9e" data-original="#000000" style=""/><path d="m18.2803 22.5303c-.2929.2929-.7677.2929-1.0606 0l-2.5-2.5c-.2145-.2145-.2787-.5371-.1626-.8173.1161-.2803.3896-.463.6929-.463h7c.4142 0 .75.3358.75.75s-.3358.75-.75.75h-5.1893l1.2196 1.2197c.2929.2929.2929.7677 0 1.0606z" fill="#005a9e" data-original="#000000" style=""/></g></g></g></svg>
