<svg viewBox="0 0 64 64" xml:space="preserve" xmlns="http://www.w3.org/2000/svg"><path d="M44.525 20.734c0-6.919-5.608-12.527-12.528-12.527S19.47 13.815 19.47 20.734c0 9.913 12.527 24.581 12.527 24.581s12.528-14.719 12.528-24.581zm-18.706-.748a6.18 6.18 0 1 1 12.358 0 6.18 6.18 0 0 1-12.358 0z" fill="#005a9e" class="fill-000000"></path><circle cx="31.997" cy="19.986" r="3.038" fill="#005a9e" class="fill-000000"></circle><path d="M39.08 40.958a89.556 89.556 0 0 1-2.777 3.793c7.916.475 13.104 2.184 15.034 3.456-2.261 1.491-8.98 3.587-19.338 3.587s-17.077-2.097-19.338-3.587c1.93-1.271 7.114-2.979 15.022-3.455a88.318 88.318 0 0 1-2.781-3.792c-9.741.959-16.816 3.841-16.816 7.246 0 4.19 10.707 7.588 23.913 7.588 13.207 0 23.912-3.397 23.912-7.588.002-3.407-7.081-6.29-16.831-7.248z" fill="#005a9e" class="fill-000000"></path></svg>