<svg id="Capa_1" enable-background="new 0 0 512 512" height="512" viewBox="0 0 512 512" width="512" xmlns="http://www.w3.org/2000/svg"><g><g><path d="m226.792 59.327c-4.268 0-7.726-3.459-7.726-7.726v-27.386h-24.558l-15.084 8.499c-3.714 2.095-8.429.78-10.524-2.939-2.095-3.717-.779-8.429 2.939-10.524l16.849-9.494c1.158-.652 2.464-.995 3.793-.995h34.312c4.268 0 7.726 3.459 7.726 7.726v35.112c-.001 4.268-3.46 7.727-7.727 7.727z" fill="#eceaed"/></g><g><path clip-rule="evenodd" d="m330.955 10.15-5.782 29.62 42.036 30.54 53.045-12.107 5.753-29.62c.584-2.98-1.402-5.93-4.38-6.485l-84.19-16.33c-2.978-.584-5.898 1.402-6.482 4.382z" fill="#818b95" fill-rule="evenodd"/></g><g><path clip-rule="evenodd" d="m292.817 33.782c-19.302-4.236-38.809 3.038-44.971 22.142 3.417 3.067 7.709 227.881 7.709 227.881l214.195-43.177 16.09-136.884c2.482-20.915-13.258-35.638-33.261-38.997-5.11-1.11-18.134-3.739-32.326-6.543-19.624-3.914-41.467-8.15-47.511-9.26-6.016-1.227-27.888-5.463-47.57-9.172-14.191-2.689-27.215-5.114-32.355-5.99z" fill="#eceaed" fill-rule="evenodd"/></g><g><path clip-rule="evenodd" d="m255.556 68.368c0-4.937-2.161-9.377-5.548-12.444-2.979-2.687-6.921-4.323-11.184-4.323h-12.031-12.031c-9.199 0-16.733 7.537-16.733 16.767v16.738l28.764 9.671 28.764-9.671v-16.738z" fill="#818b95" fill-rule="evenodd"/></g><g><path clip-rule="evenodd" d="m255.994 506.334 28.647-117.441-28.647-148.266-233.147 77.177v183.652c0 2.658 2.19 4.878 4.877 4.878z" fill="#ffc89f" fill-rule="evenodd"/></g><path d="m312.828 98.465-26.719-5.171c-3.883-.748-7.835 1.676-8.903 5.487l-45.088 159.815c-1.159 4.107 1.23 8.376 5.338 9.534.701.198 1.406.292 2.102.292 3.372 0 6.472-2.225 7.432-5.63l43.159-152.978 19.745 3.821c.496.096.99.142 1.476.142 3.628 0 6.863-2.566 7.577-6.26.81-4.188-1.93-8.241-6.119-9.052z" fill="#dad8db"/><path d="m442.812 130.018c-.003-3.648-2.685-6.875-6.254-7.57l-34.808-6.748c-4.198-.818-8.243 1.926-9.056 6.115-.812 4.189 1.926 8.243 6.115 9.055l27.833 5.396-17.079 158.04c-.458 4.242 2.61 8.053 6.852 8.512.282.031.562.045.839.045 3.895 0 7.244-2.937 7.673-6.897l17.842-165.103c.031-.275.044-.568.043-.845z" fill="#dad8db"/><g><path clip-rule="evenodd" d="m281.282 240.627v-127.8-16.65c0-6.105-4.993-11.071-11.067-11.071h-16.82-57.498-12.528c-6.074 0-11.067 4.966-11.067 11.071v144.45h72.917 10.775z" fill="#ffe07d" fill-rule="evenodd"/></g><g><path clip-rule="evenodd" d="m281.282 96.177c0-6.105-4.993-11.071-11.067-11.071h-14.659-2.161-8.03c6.074 0 11.067 4.966 11.067 11.071v104.723 39.727h24.851v-144.45z" fill="#ffd064" fill-rule="evenodd"/></g><g><path d="m468.182 264.86c-.488 0-.984-.047-1.481-.143l-45.876-8.909c-4.189-.813-6.926-4.869-6.112-9.057.813-4.189 4.868-6.923 9.057-6.112l45.876 8.909c4.189.813 6.926 4.869 6.112 9.057-.716 3.691-3.951 6.255-7.576 6.255z"/></g><g><path clip-rule="evenodd" d="m489.141 317.804-233.147-77.176v265.707h228.27c2.687 0 4.877-2.22 4.877-4.878z" fill="#f7b081" fill-rule="evenodd"/></g><g><path clip-rule="evenodd" d="m423.115 240.627h-141.833-25.289l36.882 72.386c1.343 2.629 4.614 4.791 7.242 4.791h189.023 19.916c2.628 0 3.709-2.162 2.365-4.791l-34.458-67.595c-1.343-2.658-4.585-4.791-7.213-4.791z" fill="#ffdecf" fill-rule="evenodd"/></g><g><path clip-rule="evenodd" d="m426.006 28.582c.584-2.98-1.402-5.93-4.38-6.485l-26.398-5.141c2.482.935 4.001 3.564 3.475 6.251l-5.724 29.62c8.323 1.636 18.047 3.535 27.274 5.375z" fill="#576b74" fill-rule="evenodd"/></g><g><path clip-rule="evenodd" d="m485.841 103.743c2.482-20.915-13.258-35.638-33.261-38.997-5.11-1.11-18.134-3.739-32.326-6.543-9.228-1.84-18.952-3.739-27.274-5.375 14.163 2.804 27.216 5.433 32.297 6.543 20.003 3.389 35.422 18.053 33.29 39.026l-14.396 142.23h25.581z" fill="#dad8db" fill-rule="evenodd"/></g><g><path clip-rule="evenodd" d="m255.556 85.106v-16.738c0-4.937-2.161-9.377-5.548-12.444-.555-.467-1.11-.935-1.694-1.344-2.716-1.87-5.986-2.98-9.491-2.98h-12.031-5.899c9.199 0 16.733 7.537 16.733 16.767v16.738h7.738 8.03 2.162z" fill="#576b74" fill-rule="evenodd"/></g><g><path d="m334.382 211.663c-.597 0-1.202-.07-1.808-.215-4.15-.995-6.706-5.165-5.711-9.315l37.23-155.228c.995-4.149 5.165-6.707 9.315-5.711 4.15.995 6.706 5.165 5.711 9.315l-37.23 155.228c-.85 3.543-4.016 5.926-7.507 5.926z" fill="#818b95"/></g><g><path clip-rule="evenodd" d="m22.847 359.021h199.331c2.628 0 5.986-2.103 7.242-4.791l22.339-48.637 4.234-8.296v-56.67l-4.234 8.296-10.396 20.419-22.252 43.671c-1.343 2.629-4.585 4.791-7.213 4.791h-189.051z" fill="#fcb788" fill-rule="evenodd"/></g><g><path clip-rule="evenodd" d="m289.809 359.021h199.331v-41.217h-189.023c-2.628 0-5.899-2.162-7.242-4.791l-36.882-72.386v56.67l26.603 56.933c1.227 2.688 4.585 4.791 7.213 4.791z" fill="#db9975" fill-rule="evenodd"/></g><g><path clip-rule="evenodd" d="m489.141 317.804h19.916c2.628 0 3.709-2.162 2.365-4.791l-34.458-67.595c-1.343-2.658-4.585-4.791-7.213-4.791h-25.581-16.762c2.628 0 5.87 2.132 7.213 4.791l2.949 5.755 31.509 61.84c1.343 2.629.263 4.791-2.365 4.791z" fill="#ffcbbe" fill-rule="evenodd"/></g><g><path clip-rule="evenodd" d="m188.479 282.224c35.772-17.673 59.134-64.499 39.276-104.752l-14.367-29.124c-49.585 16.3-61.557-2.687-86.204 9.581-24.705 12.094-16.966 33.155-60.068 62.6l14.367 29.124c19.858 40.254 71.224 50.215 106.996 32.571z" fill="#ccf49f" fill-rule="evenodd"/></g><g><path clip-rule="evenodd" d="m213.388 148.349c-49.585 16.3-61.557-2.687-86.204 9.581-24.705 12.094-16.966 33.155-60.068 62.6l14.367 29.124c1.752 3.535 3.709 6.806 5.899 9.873 43.861-29.971 35.977-54.07 61.119-66.368 25.084-12.473 32.356 9.494 82.816-7.069-.964-2.892-2.161-5.784-3.563-8.617z" fill="#eceaed" fill-rule="evenodd"/></g><g><path clip-rule="evenodd" d="m227.755 177.472-14.367-29.124c-10.98 3.593-20.12 5.492-27.946 6.368l14.367 29.124c1.372 2.775 2.511 5.579 3.475 8.384 7.651-.672 16.762-2.454 28.034-6.134-.964-2.892-2.161-5.784-3.563-8.618z" fill="#dad8db" fill-rule="evenodd"/></g><g><path clip-rule="evenodd" d="m230.208 235.106c5.665-15.453 6.716-32.571 1.11-49.017-11.272 3.681-20.383 5.463-28.034 6.134.029.088.058.146.088.204 5.49 16.154 4.585 32.95-.788 48.199h25.406c.817-1.81 1.547-3.65 2.218-5.52z" fill="#b3e59e" fill-rule="evenodd"/></g><path d="m245.491 119.958c-5.41-10.98-14.158-17.65-24-18.298-8.143-.534-15.699 3.192-20.232 9.971-5.487 8.207-5.529 19.214-.112 30.211l.905 1.831c-20.092 5.361-32.516 4.095-43.637 2.962-11.049-1.127-21.481-2.19-34.629 4.356-13.221 6.473-18.728 15.397-24.558 24.846-5.911 9.579-12.525 20.288-29.23 33.082-5.363-10.617-13.919-17.06-23.536-17.686-8.039-.515-15.518 3.166-19.993 9.87-5.411 8.105-5.446 18.967-.106 29.785 2.504 5.101 5.392 9.93 8.586 14.353 1.51 2.092 3.873 3.203 6.27 3.203 1.567 0 3.15-.475 4.518-1.463 3.459-2.499 4.237-7.328 1.739-10.787-2.684-3.717-5.121-7.793-7.249-12.13-2.838-5.75-3.169-10.991-.906-14.381 1.393-2.089 3.639-3.196 6.137-3.029 4.07.265 8.034 3.717 10.871 9.463l13.788 27.935c1.89 3.826 6.521 5.396 10.35 3.505 3.825-1.89 5.394-6.524 3.505-10.349l-7.01-14.189c20.761-15.315 28.832-28.395 35.417-39.066 5.414-8.775 8.991-14.572 18.247-19.104 9.191-4.576 15.966-3.885 26.221-2.839 12.465 1.271 27.747 2.828 52.526-4.333l11.453 23.216c8.607 17.438 8.646 37.531.112 56.576-1.746 3.894-.003 8.465 3.89 10.21 1.026.46 2.1.678 3.156.678 2.951 0 5.77-1.701 7.054-4.569.933-2.082 1.778-4.176 2.542-6.277 12.243-28.841 30.324-72.125 7.911-117.553zm-6.585 64.415c-1.151-3.504-23.902-49.371-23.902-49.371-2.907-5.901-3.235-11.289-.899-14.782 1.449-2.166 3.769-3.304 6.37-3.141 4.184.276 8.25 3.815 11.157 9.713 9.717 19.695 10.723 38.743 7.274 57.581z" fill="#b3e59e"/><g><path clip-rule="evenodd" d="m172.301 240.627h-62.55-32.706-34.779c-.35 0-.701.029-1.051.088-2.395.467-5.023 2.395-6.191 4.703l-12.177 23.924-22.281 43.671c-1.314 2.629-.263 4.791 2.365 4.791h19.916 189.052c2.628 0 5.87-2.162 7.213-4.791l22.252-43.671 10.396-20.419 4.234-8.296h-10.775-17.229z" fill="#ffdecf" fill-rule="evenodd"/></g><g><path clip-rule="evenodd" d="m219.112 313.013 22.252-43.671 10.396-20.419 4.234-8.296h-10.775-17.229-16.149l-20.441 40.078-16.47 32.308c-1.343 2.629-4.585 4.791-7.213 4.791h44.182c2.628 0 5.869-2.162 7.213-4.791z" fill="#ffcbbe" fill-rule="evenodd"/></g></g></svg>